<?xml version="1.0" encoding="UTF-8" standalone="no"?>
<!-- Created with Inkscape (http://www.inkscape.org/) -->

<svg
   xmlns:dc="http://purl.org/dc/elements/1.1/"
   xmlns:cc="http://creativecommons.org/ns#"
   xmlns:rdf="http://www.w3.org/1999/02/22-rdf-syntax-ns#"
   xmlns:svg="http://www.w3.org/2000/svg"
   xmlns="http://www.w3.org/2000/svg"
   xmlns:sodipodi="http://sodipodi.sourceforge.net/DTD/sodipodi-0.dtd"
   xmlns:inkscape="http://www.inkscape.org/namespaces/inkscape"
   version="1.1"
   id="svg3109"
   xml:space="preserve"
   width="800"
   height="800"
   viewBox="100 50 600 600"
   sodipodi:docname="flower-vector-publicdomainvectors.svg"
   inkscape:version="0.92.4 (5da689c313, 2019-01-14)"><metadata
     id="metadata3115"><rdf:RDF><cc:Work
         rdf:about=""><dc:format>image/svg+xml</dc:format><dc:type
           rdf:resource="http://purl.org/dc/dcmitype/StillImage" /><dc:title></dc:title></cc:Work></rdf:RDF></metadata><defs
     id="defs3113"><clipPath
       clipPathUnits="userSpaceOnUse"
       id="clipPath3125"><path
         d="M 0,600 H 600 V 0 H 0 Z"
         id="path3123"
         inkscape:connector-curvature="0" /></clipPath></defs><sodipodi:namedview
     pagecolor="#ffffff"
     bordercolor="#666666"
     borderopacity="1"
     objecttolerance="10"
     gridtolerance="10"
     guidetolerance="10"
     inkscape:pageopacity="0"
     inkscape:pageshadow="2"
     inkscape:window-width="1920"
     inkscape:window-height="1018"
     id="namedview3111"
     showgrid="false"
     inkscape:zoom="0.98604331"
     inkscape:cx="408.47458"
     inkscape:cy="396.61017"
     inkscape:window-x="-8"
     inkscape:window-y="-8"
     inkscape:window-maximized="1"
     inkscape:current-layer="g3117" /><g
     id="g3117"
     inkscape:groupmode="layer"
     inkscape:label="flower-vector-publicdomainvectors"
     transform="matrix(1.3333333,0,0,-1.3333333,0,800)"><g
       id="g3119"><g
         id="g3121"
         clip-path="url(#clipPath3125)"><path
           d="m 337.468,337.495 c -2.11,0 -3.821,-1.71 -3.821,-3.819 0,-2.111 1.711,-3.821 3.821,-3.821 2.109,0 3.82,1.71 3.82,3.821 0,2.109 -1.711,3.819 -3.82,3.819 m -8.022,-14.898 c -2.11,0 -3.821,-1.711 -3.821,-3.821 0,-2.109 1.711,-3.82 3.821,-3.82 2.109,0 3.82,1.711 3.82,3.82 0,2.11 -1.711,3.821 -3.82,3.821 m -34.383,-5.455 c -1.629,0 -2.951,-1.321 -2.951,-2.95 0,-1.629 1.322,-2.95 2.951,-2.95 1.629,0 2.951,1.321 2.951,2.95 0,1.629 -1.322,2.95 -2.951,2.95 m 25.213,-3.437 c -1.629,0 -2.95,-1.321 -2.95,-2.951 0,-1.629 1.321,-2.95 2.95,-2.95 1.63,0 2.952,1.321 2.952,2.95 0,1.63 -1.322,2.951 -2.952,2.951 m -18.337,56.157 c -1.629,0 -2.95,-1.321 -2.95,-2.951 0,-1.629 1.321,-2.949 2.95,-2.949 1.63,0 2.952,1.32 2.952,2.949 0,1.63 -1.322,2.951 -2.952,2.951 m 27.507,-5.73 c -1.631,0 -2.952,-1.322 -2.952,-2.95 0,-1.63 1.321,-2.951 2.952,-2.951 1.629,0 2.95,1.321 2.95,2.951 0,1.628 -1.321,2.95 -2.95,2.95 m 0,-12.119 c -2.532,0 -4.584,-2.053 -4.584,-4.584 0,-2.533 2.052,-4.584 4.584,-4.584 2.531,0 4.584,2.051 4.584,4.584 0,2.531 -2.053,4.584 -4.584,4.584 m -21.011,-33.237 c -2.111,0 -3.821,-1.71 -3.821,-3.82 0,-2.109 1.71,-3.819 3.821,-3.819 2.109,0 3.819,1.71 3.819,3.819 0,2.11 -1.71,3.82 -3.819,3.82 m 5.73,44.771 c -3.416,0 -6.186,-2.769 -6.186,-6.185 0,-3.416 2.77,-6.184 6.186,-6.184 3.416,0 6.185,2.768 6.185,6.184 0,3.416 -2.769,6.185 -6.185,6.185 m -21.16,-29.934 c -2.613,0 -4.733,-2.119 -4.733,-4.732 0,-2.614 2.12,-4.733 4.733,-4.733 2.613,0 4.732,2.119 4.732,4.733 0,2.613 -2.119,4.732 -4.732,4.732 m 1.49,23.749 c -4.008,0 -7.26,-3.25 -7.26,-7.259 0,-4.009 3.252,-7.258 7.26,-7.258 4.009,0 7.259,3.249 7.259,7.258 0,4.009 -3.25,7.259 -7.259,7.259 m 19.67,-11.843 c -5.486,0 -9.933,-4.448 -9.933,-9.933 0,-5.485 4.447,-9.933 9.933,-9.933 5.485,0 9.932,4.448 9.932,9.933 0,5.485 -4.447,9.933 -9.932,9.933 m 47.412,-235.735 c -4.082,27.996 7.648,58.183 9.314,111.379 0.351,11.2 -16.663,53.565 -46.634,82.589 -3.471,-8.361 33.238,-49.846 30.097,-82.358 -4.856,14.543 -23.96,49.204 -29.321,64.234 -3.146,-8.425 27.655,-96.74 21.206,-109.42 0,0 -25.889,78.538 -28.276,110.69 -7.758,-4.303 1.887,-66.544 7.257,-81.58 -17.341,20.597 -19.143,61.264 -11.528,97.528 -39.08,-69.651 10.842,-160.028 47.885,-193.062 M 167.12,156.835 c 19.138,20.837 49.955,30.792 92.269,63.075 8.91,6.797 31.03,46.734 34.626,88.299 -8.676,-2.585 -17.683,-57.241 -44.885,-75.326 8.216,12.945 23.042,49.639 31.318,63.285 -8.522,-2.877 -57.582,-82.511 -71.487,-85.511 0,0 44.577,69.651 68.01,91.797 -8.236,3.301 -50.425,-43.464 -58.697,-57.12 5.03,26.451 35.436,53.515 68.372,70.498 C 207.952,302.182 169.364,206.419 167.12,156.835 m 177.312,163.879 c 26.416,-6.195 52.835,-20.001 61.115,-37.891 -8.306,8.226 -46.6,33.925 -51.861,30.114 20.587,-11.555 64.655,-53.084 64.655,-53.084 -10.411,-0.346 -59.442,47.474 -66.007,48 8.31,-8.218 25.376,-31.64 33.517,-39.369 -22.54,7.997 -38.675,45.213 -45.296,45.504 9.958,-28.882 32.782,-53.306 40.32,-56.546 35.803,-15.39 59.464,-16.974 76.769,-28.363 -10.426,34.817 -54.891,95.959 -113.212,91.635 m 4.817,37.048 c 29.02,14.888 63.965,22.804 85.476,12.863 -14.011,1.069 -69.092,-5.197 -70.945,-12.784 27.853,5.441 100.544,1.7 100.544,1.7 -9.268,-8.419 -91.402,-2.779 -97.824,-7.408 14.008,-1.06 47.872,-9.231 61.344,-9.974 -26.872,-10.219 -70.618,11.313 -76.91,6.425 31.602,-18.705 71.52,-23.312 80.948,-20.412 44.775,13.77 67.681,30.738 92.398,33.774 -36.652,23.778 -124.973,45.173 -175.031,-4.184 m -31.306,16.567 c 4.764,38.207 20.269,77.56 44.265,91.941 -10.354,-12.96 -40.853,-70.863 -34.683,-77.712 13.205,30.789 65.172,99.22 65.172,99.22 2.053,-14.637 -58.042,-91.019 -57.796,-100.362 10.345,12.963 40.826,40.569 50.506,53.22 -7.892,-33.01 -57.976,-61.377 -57.388,-70.764 39.252,18.397 70.28,54.28 73.718,65.405 16.327,52.836 14.997,86.461 28.464,112.592 C 382.643,527.918 303.063,455.971 317.943,374.329 M 75.518,330.989 c 29.396,-0.255 58.531,-17.094 112.889,-27.257 11.447,-2.139 57.653,8.603 92.216,34.768 -8.033,4.892 -56.464,-26.213 -89.349,-17.822 15.704,2.675 54.33,16.787 70.618,19.903 -8.153,4.57 -103.734,-13.03 -115.73,-4.393 0,0 84.76,14.108 118.155,11.452 -3.187,8.65 -68.63,8.633 -84.923,5.507 23.905,14.535 65.95,9.925 101.978,-3.656 -65.314,51.195 -166.047,14.289 -205.854,-18.502 m 220.422,44.178 c -6.505,42.934 -25.156,86.843 -52.639,102.347 12.059,-14.306 48.165,-78.684 41.413,-86.589 -15.805,34.32 -76.426,109.93 -76.426,109.93 -1.883,-16.565 68.143,-100.896 68.143,-111.436 -12.047,14.306 -47.233,44.525 -58.526,58.501 9.881,-36.983 67.192,-67.477 66.809,-78.077 -44.803,19.576 -80.852,59.11 -85.059,71.55 -19.978,59.085 -19.479,97.037 -35.438,126.098 C 218.43,546.409 310.29,467.657 295.94,375.167"
           style="fill:#fff37a;fill-opacity:1;fill-rule:nonzero;stroke:none"
           id="path3127"
           inkscape:connector-curvature="0" /></g></g></g></svg>